External Loads File
version=1
nRows=70
nColumns=13
Range=5.000000e-03-10 seconds
endheader
time 	forceRightX 	forceRightY 	forceRightZ 	pointRightX 	pointRightY 	pointRightZ 	forceLeftX 	forceLeftY 	forceLeftZ 	pointLeftX 	pointLeftY 	pointLeftZ 		
0.005000 33.964944 122.485298 -0.000000 0.387353 0.385772 -0.101645 51.340268 156.769429 -0.000000 0.066725 0.271596 -0.338645
0.010000 33.589507 122.867459 -0.000000 0.387337 0.385812 -0.101644 50.796707 156.437409 -0.000000 0.066745 0.271567 -0.338626
0.015000 33.235811 123.243356 -0.000000 0.387310 0.385827 -0.101648 50.305449 156.142428 -0.000000 0.066759 0.271535 -0.338631
0.020000 32.910686 123.618532 -0.000000 0.387290 0.385884 -0.101655 49.876964 155.919592 -0.000000 0.066779 0.271490 -0.338630
0.025000 32.557622 124.003630 -0.000000 0.387263 0.386272 -0.101563 49.438518 155.814000 -0.000000 0.066806 0.271493 -0.338197
0.030000 32.413667 124.321538 -0.000000 0.387228 0.386305 -0.101554 49.292159 155.737152 -0.000000 0.066686 0.271476 -0.338711
0.035000 32.314601 124.602143 -0.000000 0.387211 0.386362 -0.101551 49.252271 155.748858 -0.000000 0.066668 0.271441 -0.338750
0.040000 32.272711 124.842906 -0.000000 0.387181 0.386423 -0.101538 49.355132 155.834238 -0.000000 0.066677 0.271389 -0.338773
0.045000 32.325776 125.051145 -0.000000 0.387158 0.386479 -0.101530 49.621637 155.964978 -0.000000 0.066679 0.271358 -0.338782
0.050000 32.481426 125.242854 -0.000000 0.387140 0.386524 -0.101532 49.966655 156.108765 -0.000000 0.066686 0.271327 -0.338798
0.055000 32.707204 125.422976 -0.000000 0.387117 0.386586 -0.101546 50.234855 156.227100 -0.000000 0.066695 0.271289 -0.338807
0.060000 32.984487 125.571414 -0.000000 0.387101 0.386617 -0.101540 50.345527 156.275116 -0.000000 0.066701 0.271266 -0.338812
0.065000 33.259075 125.681058 -0.000000 0.387088 0.386632 -0.101525 50.269245 156.256278 -0.000000 0.066687 0.271230 -0.338819
0.070000 33.511926 125.754162 -0.000000 0.387082 0.386670 -0.101534 50.104413 156.206798 -0.000000 0.066684 0.271217 -0.338819
0.075000 33.746387 125.795796 -0.000000 0.387077 0.386689 -0.101534 50.017928 156.181705 -0.000000 0.066689 0.271193 -0.338835
0.080000 33.973348 125.806232 -0.000000 0.387065 0.386701 -0.101545 50.148497 156.226929 -0.000000 0.066682 0.271183 -0.338845
0.085000 34.184660 125.788088 -0.000000 0.387079 0.386736 -0.101543 50.491491 156.359148 -0.000000 0.066678 0.271159 -0.338840
0.090000 34.448212 125.722758 -0.000000 0.387080 0.386649 -0.101534 51.017518 156.514890 -0.000000 0.066671 0.271168 -0.338853
0.095000 34.648612 125.639882 -0.000000 0.387088 0.386660 -0.101530 51.438585 156.668269 -0.000000 0.066667 0.271125 -0.338846
0.100000 34.826381 125.526546 -0.000000 0.387109 0.386673 -0.101528 51.709526 156.730698 -0.000000 0.066664 0.271116 -0.338848
0.105000 34.934254 125.402248 -0.000000 0.387098 0.386702 -0.101517 51.743272 156.689335 -0.000000 0.066667 0.271089 -0.338846
0.110000 34.998436 125.277496 -0.000000 0.387101 0.386709 -0.101522 51.590718 156.548821 -0.000000 0.066654 0.271056 -0.338832
0.115000 35.008004 125.175235 -0.000000 0.387098 0.386756 -0.101517 51.277771 156.348666 -0.000000 0.066667 0.271040 -0.338820
0.120000 34.921423 125.123268 -0.000000 0.387083 0.386929 -0.101521 50.802586 156.137481 -0.000000 0.066684 0.270989 -0.338829
0.125000 34.857809 125.104167 -0.000000 0.387068 0.386960 -0.101500 50.365940 155.897009 -0.000000 0.066686 0.270962 -0.338824
0.130000 34.753761 125.147306 -0.000000 0.387055 0.387001 -0.101493 49.937875 155.684549 -0.000000 0.066719 0.270923 -0.338826
0.135000 34.619417 125.244740 -0.000000 0.387029 0.387037 -0.101501 49.589011 155.522255 -0.000000 0.066726 0.270854 -0.338834
0.140000 34.450039 125.373855 -0.000000 0.387013 0.387099 -0.101482 49.382237 155.432080 -0.000000 0.066766 0.270806 -0.338839
0.145000 34.252054 125.506325 -0.000000 0.386988 0.387145 -0.101487 49.363697 155.425543 -0.000000 0.066793 0.270755 -0.338834
0.150000 34.019655 125.631378 -0.000000 0.386963 0.387203 -0.101478 49.485475 155.502294 -0.000000 0.066824 0.270680 -0.338822
0.155000 33.786642 125.738036 -0.000000 0.386931 0.387264 -0.101483 49.681206 155.618209 -0.000000 0.066856 0.270624 -0.338823
0.160000 33.550386 125.821042 -0.000000 0.386908 0.387321 -0.101492 49.836067 155.724933 -0.000000 0.066897 0.270566 -0.338826
0.165000 33.320101 125.868830 -0.000000 0.386890 0.387356 -0.101481 49.895976 155.781759 -0.000000 0.066913 0.270525 -0.338819
0.170000 33.083163 125.885088 -0.000000 0.386865 0.387409 -0.101477 49.832525 155.790079 -0.000000 0.066953 0.270486 -0.338825
0.175000 32.875305 125.868607 -0.000000 0.386856 0.387453 -0.101500 49.724108 155.758289 -0.000000 0.066991 0.270437 -0.338833
0.180000 32.713659 125.816607 -0.000000 0.386851 0.387486 -0.101500 49.660300 155.709108 -0.000000 0.067014 0.270389 -0.338825
0.185000 32.586782 125.725249 -0.000000 0.386855 0.387519 -0.101502 49.683636 155.670890 -0.000000 0.067034 0.270347 -0.338831
0.190000 32.500803 125.591824 -0.000000 0.386857 0.387534 -0.101503 49.794227 155.650333 -0.000000 0.067052 0.270330 -0.338829
0.195000 32.440670 125.431784 -0.000000 0.386877 0.387557 -0.101503 49.897866 155.640062 -0.000000 0.067077 0.270297 -0.338827
0.200000 32.431201 125.255933 -0.000000 0.386889 0.387581 -0.101506 49.924852 155.603381 -0.000000 0.067086 0.270277 -0.338829
0.205000 32.477382 125.077710 -0.000000 0.386902 0.387591 -0.101508 49.812990 155.517413 -0.000000 0.067106 0.270256 -0.338821
0.210000 32.572359 124.906237 -0.000000 0.386904 0.387592 -0.101505 49.569478 155.376798 -0.000000 0.067114 0.270246 -0.338827
0.215000 32.673354 124.753975 -0.000000 0.386922 0.387625 -0.101510 49.247403 155.203806 -0.000000 0.067126 0.270239 -0.338827
0.220000 32.779882 124.624998 -0.000000 0.386939 0.387624 -0.101516 48.976866 155.019883 -0.000000 0.067126 0.270227 -0.338822
0.225000 32.886661 124.532145 -0.000000 0.386954 0.387633 -0.101508 48.834600 154.861026 -0.000000 0.067135 0.270239 -0.338830
0.230000 33.003474 124.485511 -0.000000 0.386963 0.387641 -0.101510 48.861884 154.759670 -0.000000 0.067124 0.270232 -0.338824
0.235000 33.147306 124.482088 -0.000000 0.386973 0.387652 -0.101519 49.088104 154.730621 -0.000000 0.067134 0.270245 -0.338831
0.240000 33.293790 124.513127 -0.000000 0.386991 0.387643 -0.101523 49.492235 154.778996 -0.000000 0.067142 0.270236 -0.338825
0.245000 33.406521 124.565615 -0.000000 0.387006 0.387633 -0.101523 50.025088 154.897551 -0.000000 0.067135 0.270231 -0.338831
0.250000 33.457506 124.627152 -0.000000 0.387018 0.387633 -0.101529 50.583065 155.064003 -0.000000 0.067132 0.270230 -0.338822
0.255000 33.459579 124.677863 -0.000000 0.387031 0.387637 -0.101514 51.030292 155.224248 -0.000000 0.067133 0.270238 -0.338835
0.260000 33.434466 124.704455 -0.000000 0.387039 0.387629 -0.101529 51.245679 155.324633 -0.000000 0.067129 0.270243 -0.338835
0.265000 33.372511 124.721950 -0.000000 0.387034 0.387643 -0.101515 51.184804 155.362774 -0.000000 0.067136 0.270234 -0.338832
0.270000 33.304406 124.750063 -0.000000 0.387039 0.387636 -0.101517 50.980476 155.367053 -0.000000 0.067132 0.270222 -0.338838
0.275000 33.226973 124.814418 -0.000000 0.387044 0.387653 -0.101524 50.764883 155.400986 -0.000000 0.067143 0.270211 -0.338836
0.280000 33.172486 124.915331 -0.000000 0.387041 0.387662 -0.101519 50.654388 155.493365 -0.000000 0.067149 0.270201 -0.338827
0.285000 33.159349 125.042740 -0.000000 0.387033 0.387655 -0.101517 50.636625 155.634098 -0.000000 0.067151 0.270195 -0.338833
0.290000 33.171734 125.188472 -0.000000 0.387034 0.387663 -0.101509 50.586675 155.794135 -0.000000 0.067157 0.270173 -0.338844
0.295000 33.207267 125.337960 -0.000000 0.387025 0.387678 -0.101509 50.423392 155.937861 -0.000000 0.067166 0.270170 -0.338841
0.300000 33.244304 125.482691 -0.000000 0.387034 0.387683 -0.101519 50.126087 156.059899 -0.000000 0.067178 0.270153 -0.338837
0.305000 33.256068 125.619759 -0.000000 0.387023 0.387699 -0.101524 49.741824 156.181136 -0.000000 0.067199 0.270133 -0.338848
0.310000 33.244954 125.740407 -0.000000 0.387021 0.387706 -0.101516 49.385667 156.317507 -0.000000 0.067199 0.270127 -0.338847
0.315000 33.172855 125.842127 -0.000000 0.387017 0.387715 -0.101518 49.114815 156.488745 -0.000000 0.067216 0.270108 -0.338847
0.320000 33.055485 125.907933 -0.000000 0.387015 0.387722 -0.101520 49.013682 156.680499 -0.000000 0.067225 0.270109 -0.338847
0.325000 32.910621 125.932621 -0.000000 0.387023 0.387728 -0.101522 49.100368 156.876824 -0.000000 0.067250 0.270092 -0.338849
0.330000 32.800312 125.910370 -0.000000 0.387031 0.387735 -0.101529 49.389345 157.052205 -0.000000 0.067261 0.270082 -0.338844
0.335000 32.748142 125.841994 -0.000000 0.387031 0.387742 -0.101532 49.840458 157.201357 -0.000000 0.067270 0.270064 -0.338851
0.340000 32.770268 125.724670 -0.000000 0.387044 0.387745 -0.101527 50.409538 157.310428 -0.000000 0.067276 0.270074 -0.338845
0.345000 32.839701 125.576820 -0.000000 0.387063 0.387746 -0.101522 50.952651 157.355084 -0.000000 0.067290 0.270063 -0.338853
0.350000 32.975947 125.421318 -0.000000 0.387079 0.387743 -0.101528 51.339184 157.280489 -0.000000 0.067296 0.270065 -0.338848
